<?xml version="1.0" encoding="UTF-8"?>
<!DOCTYPE svg PUBLIC "-//W3C//DTD SVG 1.1//EN" "http://www.w3.org/Graphics/SVG/1.1/DTD/svg11.dtd">
<svg xmlns="http://www.w3.org/2000/svg" version="1.1" width="262px" height="263px" style="shape-rendering:geometricPrecision; text-rendering:geometricPrecision; image-rendering:optimizeQuality; fill-rule:evenodd; clip-rule:evenodd" xmlns:xlink="http://www.w3.org/1999/xlink">
<g><path style="opacity:0.99" fill="#0c090a" d="M 197.5,48.5 C 196.445,60.1447 196.279,71.8114 197,83.5C 197.383,82.944 197.883,82.6107 198.5,82.5C 202.347,85.8038 206.68,88.6371 211.5,91C 213.359,92.5578 214.859,94.3911 216,96.5C 216.667,106.5 216.667,116.5 216,126.5C 214.38,128.241 212.88,130.075 211.5,132C 206.758,134.12 202.258,136.62 198,139.5C 196.327,147.52 193.66,155.187 190,162.5C 188.211,164.229 186.044,164.896 183.5,164.5C 183.443,163.391 183.11,162.391 182.5,161.5C 184.728,154.424 186.728,147.258 188.5,140C 188.15,138.743 187.483,138.409 186.5,139C 184.627,140.704 182.96,142.537 181.5,144.5C 179.938,144.733 178.605,145.4 177.5,146.5C 174.594,147.751 171.594,148.251 168.5,148C 164.987,139.669 158.653,135.502 149.5,135.5C 143.602,137.847 137.436,139.514 131,140.5C 126.077,140.192 121.577,138.692 117.5,136C 110.025,134.329 103.691,136.163 98.5,141.5C 96.2918,142.894 94.7918,144.894 94,147.5C 87.2322,147.878 81.3989,145.545 76.5,140.5C 76.5852,139.005 75.9185,138.005 74.5,137.5C 73.2072,139.636 73.2072,141.636 74.5,143.5C 81.1471,166.815 95.8138,182.815 118.5,191.5C 122.203,193.055 126.203,193.722 130.5,193.5C 133.686,193.498 136.686,193.165 139.5,192.5C 150.275,190.114 159.609,185.114 167.5,177.5C 170.666,175.166 173.333,172.333 175.5,169C 177.545,168.51 179.545,168.677 181.5,169.5C 182.613,170.946 182.78,172.613 182,174.5C 180.029,176.808 178.029,179.142 176,181.5C 175.333,186.833 175.333,192.167 176,197.5C 195.114,203.739 214.281,209.905 233.5,216C 248.637,222.612 257.971,233.778 261.5,249.5C 261.5,253.5 261.5,257.5 261.5,261.5C 260.833,261.5 260.5,261.833 260.5,262.5C 258.833,262.5 257.167,262.5 255.5,262.5C 255.638,257.586 254.972,252.919 253.5,248.5C 252.254,244.434 250.254,240.768 247.5,237.5C 238.767,237.203 231.434,240.203 225.5,246.5C 222.785,248.902 220.285,251.568 218,254.5C 216.991,256.025 216.491,257.692 216.5,259.5C 216.443,260.609 216.11,261.609 215.5,262.5C 213.167,262.5 210.833,262.5 208.5,262.5C 207.833,261.5 207.167,260.5 206.5,259.5C 208.228,255.713 210.228,252.046 212.5,248.5C 218.089,242.411 224.422,237.244 231.5,233C 234.5,232 237.5,231 240.5,230C 232.236,224.52 223.236,220.687 213.5,218.5C 206.349,222.979 201.016,228.979 197.5,236.5C 194.768,241.744 193.101,247.411 192.5,253.5C 191.232,255.905 190.565,258.572 190.5,261.5C 188.901,261.232 187.568,261.566 186.5,262.5C 185.833,262.5 185.167,262.5 184.5,262.5C 183.89,261.609 183.557,260.609 183.5,259.5C 183.5,259.167 183.5,258.833 183.5,258.5C 184.917,243.921 190.25,230.921 199.5,219.5C 200.962,218.542 202.295,217.376 203.5,216C 193.907,212.247 184.074,209.081 174,206.5C 169.945,210.063 165.779,213.397 161.5,216.5C 158.011,217.658 154.678,218.991 151.5,220.5C 147.821,220.724 144.154,221.058 140.5,221.5C 140.263,222.791 140.596,223.791 141.5,224.5C 142.167,224.833 142.833,225.167 143.5,225.5C 149.566,231.561 155.233,237.894 160.5,244.5C 160.5,250.167 160.5,255.833 160.5,261.5C 158.801,261.66 157.134,261.494 155.5,261C 154.748,260.329 154.414,259.496 154.5,258.5C 154.817,254.298 154.483,250.298 153.5,246.5C 145.368,238.869 137.368,231.036 129.5,223C 117.394,223.56 106.394,220.56 96.5,214C 94.1255,211.961 92.1255,209.628 90.5,207C 87.2563,206.288 84.2563,206.788 81.5,208.5C 80.6236,208.369 79.9569,208.702 79.5,209.5C 79.9572,211.598 80.9572,213.264 82.5,214.5C 87.6624,225.025 93.3291,235.358 99.5,245.5C 100.68,248.54 102.347,251.206 104.5,253.5C 105.092,256.127 105.425,258.794 105.5,261.5C 104.127,261.657 102.793,261.49 101.5,261C 100.922,259.583 99.9221,258.75 98.5,258.5C 94.0956,250.695 89.429,243.028 84.5,235.5C 78.0067,237.366 71.6734,239.366 65.5,241.5C 62.0579,242.451 58.7246,243.785 55.5,245.5C 56.1925,246.518 56.8592,247.518 57.5,248.5C 59.6524,251.973 61.3191,255.64 62.5,259.5C 62.5,260.5 62.5,261.5 62.5,262.5C 59.8333,262.5 57.1667,262.5 54.5,262.5C 54.4431,261.391 54.1098,260.391 53.5,259.5C 53.6716,258.508 53.3382,257.842 52.5,257.5C 52.5,256.5 52.5,255.5 52.5,254.5C 50.0172,248.867 47.0172,243.534 43.5,238.5C 42.2665,232.354 39.2665,227.354 34.5,223.5C 23.29,226.714 15.6233,233.714 11.5,244.5C 10.0337,245.347 9.20041,246.68 9,248.5C 8.07746,252.79 7.57746,257.123 7.5,261.5C 7.5,261.833 7.5,262.167 7.5,262.5C 5.5,262.5 3.5,262.5 1.5,262.5C -0.976242,246.109 4.35709,232.776 17.5,222.5C 22.1667,219.833 26.8333,217.167 31.5,214.5C 29.2199,208.04 30.5533,202.54 35.5,198C 44.701,194.158 54.201,191.325 64,189.5C 71.138,189.815 75.3046,193.482 76.5,200.5C 80.1662,200.042 83.6662,199.042 87,197.5C 87.6667,192.167 87.6667,186.833 87,181.5C 75.4684,169.773 68.1351,155.773 65,139.5C 58.9424,136.442 54.609,131.775 52,125.5C 47.2521,113.026 47.4188,100.693 52.5,88.5C 53.3636,87.3117 54.3636,86.1451 55.5,85C 58.9342,83.9395 61.9342,82.4395 64.5,80.5C 65.8261,76.3861 66.4927,71.8861 66.5,67C 66.3333,62.5 66.1667,58 66,53.5C 65.6174,52.944 65.1174,52.6107 64.5,52.5C 66.6389,38.0582 72.6389,25.5582 82.5,15C 85.8662,12.8159 89.5328,11.4825 93.5,11C 97.0295,7.06664 101.363,4.39998 106.5,3C 113.345,2.64512 120.178,2.14512 127,1.5C 130.934,1.04903 133.768,2.54903 135.5,6C 151.971,6.42513 167.305,10.7585 181.5,19C 190.663,26.8297 195.996,36.663 197.5,48.5 Z"/></g>
<g><path style="opacity:1" fill="#89645b" d="M 122.5,11.5 C 118.033,11.6472 113.367,11.8138 108.5,12C 106.03,12.9888 103.697,14.1554 101.5,15.5C 102.771,13.0661 104.771,11.5661 107.5,11C 112.537,10.3369 117.537,10.5036 122.5,11.5 Z"/></g>
<g><path style="opacity:1" fill="#d09180" d="M 122.5,11.5 C 123.833,11.5 125.167,11.5 126.5,11.5C 126.5,19.1667 126.5,26.8333 126.5,34.5C 114.639,34.782 102.806,34.4486 91,33.5C 88.7596,34.476 86.593,35.3093 84.5,36C 84.0114,27.2686 88.3447,22.4352 97.5,21.5C 100.049,20.2496 101.382,18.2496 101.5,15.5C 103.697,14.1554 106.03,12.9888 108.5,12C 113.367,11.8138 118.033,11.6472 122.5,11.5 Z"/></g>
<g><path style="opacity:1" fill="#b4d0d5" d="M 141.5,15.5 C 145.189,16.8864 149.023,18.2197 153,19.5C 153.725,18.9415 154.558,18.6082 155.5,18.5C 159.13,19.4263 162.797,20.0929 166.5,20.5C 168.598,21.935 170.931,23.1016 173.5,24C 174.022,24.5613 174.355,25.228 174.5,26C 166.395,33.9392 158.395,42.1058 150.5,50.5C 145.544,51.4941 140.544,51.8275 135.5,51.5C 135.5,39.5 135.5,27.5 135.5,15.5C 137.5,15.5 139.5,15.5 141.5,15.5 Z"/></g>
<g><path style="opacity:1" fill="#98acb2" d="M 141.5,15.5 C 150.239,15.7856 158.572,17.4523 166.5,20.5C 162.797,20.0929 159.13,19.4263 155.5,18.5C 154.558,18.6082 153.725,18.9415 153,19.5C 149.023,18.2197 145.189,16.8864 141.5,15.5 Z"/></g>
<g><path style="opacity:0.004" fill="#fefffe" d="M 257.5,17.5 C 258.833,18.1667 258.833,18.1667 257.5,17.5 Z"/></g>
<g><path style="opacity:0.004" fill="#fefffe" d="M 232.5,18.5 C 233.833,19.1667 233.833,19.1667 232.5,18.5 Z"/></g>
<g><path style="opacity:1" fill="#6c4b42" d="M 97.5,18.5 C 95.4855,19.9238 93.1522,20.5905 90.5,20.5C 92.4385,18.8372 94.7718,18.1706 97.5,18.5 Z"/></g>
<g><path style="opacity:0.004" fill="#fefffe" d="M 30.5,31.5 C 31.8333,32.1667 31.8333,32.1667 30.5,31.5 Z"/></g>
<g><path style="opacity:1" fill="#b58476" d="M 90.5,20.5 C 93.1522,20.5905 95.4855,19.9238 97.5,18.5C 98.8333,17.5 100.167,16.5 101.5,15.5C 101.382,18.2496 100.049,20.2496 97.5,21.5C 88.3447,22.4352 84.0114,27.2686 84.5,36C 86.593,35.3093 88.7596,34.476 91,33.5C 102.806,34.4486 114.639,34.782 126.5,34.5C 126.5,26.8333 126.5,19.1667 126.5,11.5C 125.167,11.5 123.833,11.5 122.5,11.5C 123.78,10.0687 125.447,9.40206 127.5,9.5C 127.5,18.5 127.5,27.5 127.5,36.5C 114.496,36.3334 101.496,36.5001 88.5,37C 81.4789,41.5526 78.6456,48.0526 80,56.5C 77.6667,59.1667 75.3333,61.8333 73,64.5C 72.1824,58.0983 72.5158,51.765 74,45.5C 76.6893,39.4594 79.356,33.4594 82,27.5C 84.4356,24.5532 87.2689,22.2199 90.5,20.5 Z"/></g>
<g><path style="opacity:1" fill="#a9bdc3" d="M 183.5,48.5 C 183.881,47.0689 184.881,46.2355 186.5,46C 183.681,42.6767 182.014,38.8433 181.5,34.5C 180.274,33.6371 178.94,33.6371 177.5,34.5C 179.222,31.09 181.389,30.7566 184,33.5C 186.811,37.7661 188.311,42.4328 188.5,47.5C 186.784,47.6287 185.117,47.962 183.5,48.5 Z"/></g>
<g><path style="opacity:0.004" fill="#fefffe" d="M 14.5,45.5 C 15.8333,46.1667 15.8333,46.1667 14.5,45.5 Z"/></g>
<g><path style="opacity:0.004" fill="#fefffe" d="M 229.5,49.5 C 230.833,50.1667 230.833,50.1667 229.5,49.5 Z"/></g>
<g><path style="opacity:1" fill="#887670" d="M 89.5,45.5 C 89.1491,49.6836 88.4824,53.6836 87.5,57.5C 87.335,54.1501 87.5017,50.8168 88,47.5C 88.2784,46.5842 88.7784,45.9175 89.5,45.5 Z"/></g>
<g><path style="opacity:1" fill="#d0e0e4" d="M 183.5,48.5 C 181.572,50.4741 179.239,51.9741 176.5,53C 175.299,53.9025 174.465,55.0692 174,56.5C 173.821,66.7435 173.321,76.9102 172.5,87C 170.5,88 168.5,89 166.5,90C 156.172,90.4998 145.839,90.6665 135.5,90.5C 135.5,80.1667 135.5,69.8333 135.5,59.5C 140.363,59.8195 145.03,59.4861 149.5,58.5C 151.783,58.3921 153.783,57.5588 155.5,56C 162.702,48.6308 170.035,41.4641 177.5,34.5C 178.94,33.6371 180.274,33.6371 181.5,34.5C 182.014,38.8433 183.681,42.6767 186.5,46C 184.881,46.2355 183.881,47.0689 183.5,48.5 Z"/></g>
<g><path style="opacity:0.434" fill="#393939" d="M 197.5,48.5 C 198.495,59.6544 198.828,70.9877 198.5,82.5C 197.883,82.6107 197.383,82.944 197,83.5C 196.279,71.8114 196.445,60.1447 197.5,48.5 Z"/></g>
<g><path style="opacity:0.004" fill="#fefffe" d="M 3.5,62.5 C 4.83333,63.1667 4.83333,63.1667 3.5,62.5 Z"/></g>
<g><path style="opacity:0.004" fill="#fefffe" d="M 26.5,62.5 C 27.8333,63.1667 27.8333,63.1667 26.5,62.5 Z"/></g>
<g><path style="opacity:1" fill="#4b5354" d="M 149.5,58.5 C 145.03,59.4861 140.363,59.8195 135.5,59.5C 135.5,69.8333 135.5,80.1667 135.5,90.5C 134.506,80.0131 134.172,69.3464 134.5,58.5C 139.5,58.5 144.5,58.5 149.5,58.5 Z"/></g>
<g><path style="opacity:1" fill="#454e55" d="M 189.5,78.5 C 189.666,70.8261 189.5,63.1594 189,55.5C 188.329,56.2524 187.496,56.5858 186.5,56.5C 187.287,54.8958 188.62,54.2291 190.5,54.5C 190.826,62.6841 190.492,70.6841 189.5,78.5 Z"/></g>
<g><path style="opacity:0.004" fill="#fefffe" d="M 239.5,66.5 C 240.833,67.1667 240.833,67.1667 239.5,66.5 Z"/></g>
<g><path style="opacity:0.735" fill="#202122" d="M 64.5,52.5 C 65.1174,52.6107 65.6174,52.944 66,53.5C 66.1667,58 66.3333,62.5 66.5,67C 66.4927,71.8861 65.8261,76.3861 64.5,80.5C 64.5,71.1667 64.5,61.8333 64.5,52.5 Z"/></g>
<g><path style="opacity:1" fill="#0a0d0f" d="M 143.5,69.5 C 146.044,69.1043 148.211,69.771 150,71.5C 151.004,74.9926 150.504,78.1592 148.5,81C 146.888,81.7203 145.388,81.5536 144,80.5C 143.501,76.8484 143.335,73.1817 143.5,69.5 Z"/></g>
<g><path style="opacity:1" fill="#0d1111" d="M 163.5,69.5 C 165.299,72.5046 165.966,75.838 165.5,79.5C 163.718,81.6869 161.552,82.0203 159,80.5C 158.333,77.1667 158.333,73.8333 159,70.5C 160.347,68.5339 161.847,68.2006 163.5,69.5 Z"/></g>
<g><path style="opacity:1" fill="#9faaab" d="M 163.5,69.5 C 164.873,69.3433 166.207,69.51 167.5,70C 166.868,73.2704 166.201,76.4371 165.5,79.5C 165.966,75.838 165.299,72.5046 163.5,69.5 Z"/></g>
<g><path style="opacity:1" fill="#859da9" d="M 189.5,78.5 C 187.046,80.0598 184.38,81.0598 181.5,81.5C 181.334,73.8261 181.5,66.1594 182,58.5C 183.33,57.4178 184.83,56.7512 186.5,56.5C 187.496,56.5858 188.329,56.2524 189,55.5C 189.5,63.1594 189.666,70.8261 189.5,78.5 Z"/></g>
<g><path style="opacity:0.004" fill="#fefffe" d="M 245.5,74.5 C 246.833,75.1667 246.833,75.1667 245.5,74.5 Z"/></g>
<g><path style="opacity:1" fill="#aa9691" d="M 77.5,71.5 C 76.9688,73.5441 75.8022,75.2107 74,76.5C 73.8285,83.6787 73.3285,90.6787 72.5,97.5C 72.3337,90.1591 72.5003,82.8258 73,75.5C 74.3712,73.9586 75.8712,72.6253 77.5,71.5 Z"/></g>
<g><path style="opacity:1" fill="#e4c3ba" d="M 70.5,107.5 C 67.2189,104.485 64.5523,104.985 62.5,109C 63.7977,113.118 63.7977,117.285 62.5,121.5C 61.8333,120.5 61.1667,119.5 60.5,118.5C 59.3351,110.521 59.1684,102.521 60,94.5C 60.5613,93.9781 61.228,93.6448 62,93.5C 63.4121,94.6856 64.5788,96.019 65.5,97.5C 67.8333,100.167 70.1667,100.167 72.5,97.5C 73.3285,90.6787 73.8285,83.6787 74,76.5C 75.8022,75.2107 76.9688,73.5441 77.5,71.5C 81.2214,67.1117 84.5547,62.4451 87.5,57.5C 88.4824,53.6836 89.1491,49.6836 89.5,45.5C 90.2891,45.2172 90.9558,44.7172 91.5,44C 103.495,43.5001 115.495,43.3335 127.5,43.5C 127.833,64.5106 127.5,85.5106 126.5,106.5C 119.895,112.374 115.895,119.707 114.5,128.5C 104.379,127.398 96.3792,130.898 90.5,139C 89.1667,139.667 87.8333,139.667 86.5,139C 79.9328,133.886 75.5995,127.219 73.5,119C 73.1853,114.883 72.1853,111.049 70.5,107.5 Z"/></g>
<g><path style="opacity:1" fill="#0f0a09" d="M 103.5,77.5 C 108.057,78.5748 112.391,80.2415 116.5,82.5C 117.5,84.1667 118.833,85.5 120.5,86.5C 121.17,89.5904 120.003,91.257 117,91.5C 112.546,89.0232 108.046,86.6899 103.5,84.5C 100.024,83.3567 96.3575,83.1901 92.5,84C 90.6803,84.2004 89.347,85.0337 88.5,86.5C 82.8419,87.3206 81.1752,85.154 83.5,80C 84.745,79.2086 86.0783,78.7086 87.5,78.5C 92.7968,77.7255 98.1301,77.3921 103.5,77.5 Z"/></g>
<g><path style="opacity:1" fill="#5d4e49" d="M 103.5,77.5 C 98.1301,77.3921 92.7968,77.7255 87.5,78.5C 90.356,76.9942 93.5226,76.3275 97,76.5C 99.3608,76.5039 101.527,76.8373 103.5,77.5 Z"/></g>
<g><path style="opacity:1" fill="#907d79" d="M 116.5,82.5 C 118.833,82.8333 120.167,84.1667 120.5,86.5C 118.833,85.5 117.5,84.1667 116.5,82.5 Z"/></g>
<g><path style="opacity:1" fill="#685752" d="M 103.5,84.5 C 98.3409,84.1817 93.3409,84.8483 88.5,86.5C 89.347,85.0337 90.6803,84.2004 92.5,84C 96.3575,83.1901 100.024,83.3567 103.5,84.5 Z"/></g>
<g><path style="opacity:0.004" fill="#fefffe" d="M 52.5,88.5 C 51.8333,87.1667 51.8333,87.1667 52.5,88.5 Z"/></g>
<g><path style="opacity:0.004" fill="#fefffe" d="M 251.5,91.5 C 252.833,92.1667 252.833,92.1667 251.5,91.5 Z"/></g>
<g><path style="opacity:1" fill="#1b1615" d="M 104.5,93.5 C 109.332,93.1692 111.332,95.5025 110.5,100.5C 110.333,102.5 110.167,104.5 110,106.5C 107.667,109.167 105.333,109.167 103,106.5C 101.978,101.871 102.478,97.5377 104.5,93.5 Z"/></g>
<g><path style="opacity:1" fill="#b2cdd2" d="M 181.5,123.5 C 177.574,118.398 173.408,113.398 169,108.5C 168.517,107.552 168.351,106.552 168.5,105.5C 170.118,102.829 170.785,99.8291 170.5,96.5C 173.035,94.983 175.702,93.6497 178.5,92.5C 180.117,91.962 181.784,91.6287 183.5,91.5C 183.667,102.505 183.5,113.505 183,124.5C 182.617,123.944 182.117,123.611 181.5,123.5 Z"/></g>
<g><path style="opacity:1" fill="#99b2ba" d="M 188.5,87.5 C 189.494,97.3194 189.827,107.319 189.5,117.5C 188.39,120.812 187.056,124.145 185.5,127.5C 183.625,126.591 182.292,125.257 181.5,123.5C 182.117,123.611 182.617,123.944 183,124.5C 183.5,113.505 183.667,102.505 183.5,91.5C 181.784,91.6287 180.117,91.962 178.5,92.5C 181.484,90.3412 184.817,88.6745 188.5,87.5 Z"/></g>
<g><path style="opacity:1" fill="#4e5a60" d="M 188.5,87.5 C 188.56,86.9569 188.893,86.6236 189.5,86.5C 190.823,96.9925 190.823,107.326 189.5,117.5C 189.827,107.319 189.494,97.3194 188.5,87.5 Z"/></g>
<g><path style="opacity:1" fill="#4e5b5c" d="M 135.5,98.5 C 139.298,97.5166 143.298,97.1832 147.5,97.5C 147.5,99.1667 147.5,100.833 147.5,102.5C 146.566,101.432 146.232,100.099 146.5,98.5C 142.833,98.5 139.167,98.5 135.5,98.5 Z"/></g>
<g><path style="opacity:1" fill="#612f33" d="M 161.5,102.5 C 161.5,101.167 161.5,99.8333 161.5,98.5C 159.5,98.5 157.5,98.5 155.5,98.5C 155.5,99.8333 155.5,101.167 155.5,102.5C 154.549,101.081 154.216,99.4147 154.5,97.5C 157.5,97.5 160.5,97.5 163.5,97.5C 163.88,99.698 163.213,101.365 161.5,102.5 Z"/></g>
<g><path style="opacity:1" fill="#283136" d="M 170.5,96.5 C 170.785,99.8291 170.118,102.829 168.5,105.5C 167.945,101.988 168.612,98.9878 170.5,96.5 Z"/></g>
<g><path style="opacity:0.004" fill="#fefffe" d="M 44.5,100.5 C 45.8333,101.167 45.8333,101.167 44.5,100.5 Z"/></g>
<g><path style="opacity:1" fill="#bc666d" d="M 161.5,102.5 C 159.5,105.167 157.5,105.167 155.5,102.5C 155.5,101.167 155.5,99.8333 155.5,98.5C 157.5,98.5 159.5,98.5 161.5,98.5C 161.5,99.8333 161.5,101.167 161.5,102.5 Z"/></g>
<g><path style="opacity:1" fill="#96b1ba" d="M 199.5,94.5 C 202.854,95.261 205.687,96.9277 208,99.5C 208.667,107.167 208.667,114.833 208,122.5C 206.399,124.719 204.233,126.052 201.5,126.5C 200.5,126.5 199.5,126.5 198.5,126.5C 198.172,115.654 198.506,104.987 199.5,94.5 Z"/></g>
<g><path style="opacity:0.004" fill="#fefffe" d="M 30.5,105.5 C 31.8333,106.167 31.8333,106.167 30.5,105.5 Z"/></g>
<g><path style="opacity:1" fill="#74878b" d="M 197.5,93.5 C 198.492,93.3284 199.158,93.6618 199.5,94.5C 198.506,104.987 198.172,115.654 198.5,126.5C 199.5,126.5 200.5,126.5 201.5,126.5C 201.5,127.833 200.833,128.5 199.5,128.5C 197.522,117.215 196.855,105.548 197.5,93.5 Z"/></g>
<g><path style="opacity:1" fill="#b1ccd2" d="M 135.5,98.5 C 139.167,98.5 142.833,98.5 146.5,98.5C 146.232,100.099 146.566,101.432 147.5,102.5C 149.825,109.672 154.825,112.839 162.5,112C 168.333,119.167 174.167,126.333 180,133.5C 179.513,136.657 177.513,138.657 174,139.5C 171.216,137.72 168.716,135.553 166.5,133C 164.391,131.354 162.057,130.188 159.5,129.5C 156.155,127.783 152.489,127.116 148.5,127.5C 146.035,121.896 143.535,116.229 141,110.5C 139.622,108.787 137.955,107.453 136,106.5C 135.503,103.854 135.336,101.187 135.5,98.5 Z"/></g>
<g><path style="opacity:1" fill="#846f6a" d="M 65.5,109.5 C 65.8297,115.868 65.4963,122.202 64.5,128.5C 63.8933,128.376 63.56,128.043 63.5,127.5C 64.1667,121.5 64.8333,115.5 65.5,109.5 Z"/></g>
<g><path style="opacity:1" fill="#2b3437" d="M 197.5,93.5 C 196.855,105.548 197.522,117.215 199.5,128.5C 198.791,129.404 197.791,129.737 196.5,129.5C 196.172,117.322 196.505,105.322 197.5,93.5 Z"/></g>
<g><path style="opacity:1" fill="#cea194" d="M 129.5,112.5 C 131.144,112.286 132.644,112.62 134,113.5C 135.442,117.511 137.442,121.178 140,124.5C 141.212,127.834 140.379,130.334 137.5,132C 133.5,132.667 129.5,132.667 125.5,132C 122.606,131.131 121.439,129.298 122,126.5C 124.73,121.942 127.23,117.275 129.5,112.5 Z"/></g>
<g><path style="opacity:0.004" fill="#fefffe" d="M 239.5,120.5 C 240.833,121.167 240.833,121.167 239.5,120.5 Z"/></g>
<g><path style="opacity:1" fill="#ccafa9" d="M 65.5,97.5 C 64.5788,96.019 63.4121,94.6856 62,93.5C 61.228,93.6448 60.5613,93.9781 60,94.5C 59.1684,102.521 59.3351,110.521 60.5,118.5C 61.1667,119.5 61.8333,120.5 62.5,121.5C 63.7977,117.285 63.7977,113.118 62.5,109C 64.5523,104.985 67.2189,104.485 70.5,107.5C 68.302,107.12 66.6354,107.787 65.5,109.5C 64.8333,115.5 64.1667,121.5 63.5,127.5C 61.8543,125.335 60.3543,123.002 59,120.5C 57.0767,111.485 57.0767,102.485 59,93.5C 63.8912,90.1119 66.0579,91.4452 65.5,97.5 Z"/></g>
<g><path style="opacity:1" fill="#687877" d="M 148.5,127.5 C 152.489,127.116 156.155,127.783 159.5,129.5C 155.64,129.192 151.974,128.525 148.5,127.5 Z"/></g>
<g><path style="opacity:0.004" fill="#fefffe" d="M 26.5,132.5 C 27.8333,133.167 27.8333,133.167 26.5,132.5 Z"/></g>
<g><path style="opacity:0.004" fill="#fefffe" d="M 49.5,132.5 C 50.8333,133.167 50.8333,133.167 49.5,132.5 Z"/></g>
<g><path style="opacity:0.004" fill="#fefffe" d="M 224.5,132.5 C 225.833,133.167 225.833,133.167 224.5,132.5 Z"/></g>
<g><path style="opacity:1" fill="#654e44" d="M 76.5,140.5 C 75.8826,140.389 75.3826,140.056 75,139.5C 74.51,140.793 74.3433,142.127 74.5,143.5C 73.2072,141.636 73.2072,139.636 74.5,137.5C 75.9185,138.005 76.5852,139.005 76.5,140.5 Z"/></g>
<g><path style="opacity:1" fill="#be8a7c" d="M 177.5,146.5 C 175.766,150.332 172.766,151.498 168.5,150C 165.692,147.756 163.692,144.923 162.5,141.5C 161.107,142.863 159.441,143.696 157.5,144C 160.38,146.253 161.046,149.086 159.5,152.5C 158.175,153.791 156.842,155.124 155.5,156.5C 146.289,158.651 136.956,159.985 127.5,160.5C 123.164,160.322 119.164,159.322 115.5,157.5C 123.324,158.617 130.99,158.617 138.5,157.5C 145.384,157.64 151.717,155.806 157.5,152C 158.935,149.733 158.602,147.733 156.5,146C 153.905,145.4 151.571,145.9 149.5,147.5C 150.642,145.567 152.308,144.067 154.5,143C 153.167,142.333 153.167,141.667 154.5,141C 153.833,140.667 153.167,140.333 152.5,140C 153.623,138.956 154.956,138.29 156.5,138C 153.167,137.333 149.833,137.333 146.5,138C 144.779,139.527 142.779,140.527 140.5,141C 133.833,141.667 127.167,141.667 120.5,141C 119.167,140.333 118.167,139.333 117.5,138C 110.739,137.11 104.405,138.277 98.5,141.5C 103.691,136.163 110.025,134.329 117.5,136C 121.577,138.692 126.077,140.192 131,140.5C 137.436,139.514 143.602,137.847 149.5,135.5C 158.653,135.502 164.987,139.669 168.5,148C 171.594,148.251 174.594,147.751 177.5,146.5 Z"/></g>
<g><path style="opacity:0.004" fill="#fefffe" d="M 259.5,139.5 C 260.833,140.167 260.833,140.167 259.5,139.5 Z"/></g>
<g><path style="opacity:0.004" fill="#fefffe" d="M 23.5,142.5 C 24.8333,143.167 24.8333,143.167 23.5,142.5 Z"/></g>
<g><path style="opacity:1" fill="#9d6b5d" d="M 182.5,161.5 C 181.371,159.372 181.204,157.039 182,154.5C 183.549,151.862 184.715,149.029 185.5,146C 185.164,144.97 184.497,144.47 183.5,144.5C 182.833,144.5 182.167,144.5 181.5,144.5C 182.96,142.537 184.627,140.704 186.5,139C 187.483,138.409 188.15,138.743 188.5,140C 186.728,147.258 184.728,154.424 182.5,161.5 Z"/></g>
<g><path style="opacity:0.004" fill="#fefffe" d="M 54.5,146.5 C 55.8333,147.167 55.8333,147.167 54.5,146.5 Z"/></g>
<g><path style="opacity:0.004" fill="#fefffe" d="M 239.5,146.5 C 240.833,147.167 240.833,147.167 239.5,146.5 Z"/></g>
<g><path style="opacity:1" fill="#ce907f" d="M 149.5,147.5 C 147.302,147.875 145.302,148.542 143.5,149.5C 133.815,149.578 124.148,149.245 114.5,148.5C 112.419,147.377 110.253,146.377 108,145.5C 104.928,146.447 103.928,148.447 105,151.5C 107.162,153.496 109.662,154.83 112.5,155.5C 113.5,156.167 114.5,156.833 115.5,157.5C 119.164,159.322 123.164,160.322 127.5,160.5C 136.956,159.985 146.289,158.651 155.5,156.5C 156.842,155.124 158.175,153.791 159.5,152.5C 161.046,149.086 160.38,146.253 157.5,144C 159.441,143.696 161.107,142.863 162.5,141.5C 163.692,144.923 165.692,147.756 168.5,150C 172.766,151.498 175.766,150.332 177.5,146.5C 178.605,145.4 179.938,144.733 181.5,144.5C 182.167,144.5 182.833,144.5 183.5,144.5C 181.057,150.102 178.39,155.602 175.5,161C 175.833,161.333 176.167,161.667 176.5,162C 175.069,163.562 173.569,165.062 172,166.5C 170.981,170.515 169.481,174.182 167.5,177.5C 159.609,185.114 150.275,190.114 139.5,192.5C 132.465,192.674 125.465,192.341 118.5,191.5C 95.8138,182.815 81.1471,166.815 74.5,143.5C 74.3433,142.127 74.51,140.793 75,139.5C 75.3826,140.056 75.8826,140.389 76.5,140.5C 81.3989,145.545 87.2322,147.878 94,147.5C 94.7918,144.894 96.2918,142.894 98.5,141.5C 104.405,138.277 110.739,137.11 117.5,138C 118.167,139.333 119.167,140.333 120.5,141C 127.167,141.667 133.833,141.667 140.5,141C 142.779,140.527 144.779,139.527 146.5,138C 149.833,137.333 153.167,137.333 156.5,138C 154.956,138.29 153.623,138.956 152.5,140C 153.167,140.333 153.833,140.667 154.5,141C 153.167,141.667 153.167,142.333 154.5,143C 152.308,144.067 150.642,145.567 149.5,147.5 Z"/></g>
<g><path style="opacity:1" fill="#0f0706" d="M 114.5,148.5 C 124.076,151.955 133.743,152.289 143.5,149.5C 146.01,149.946 148.01,149.28 149.5,147.5C 151.571,145.9 153.905,145.4 156.5,146C 158.602,147.733 158.935,149.733 157.5,152C 151.717,155.806 145.384,157.64 138.5,157.5C 129.795,157.254 121.128,156.587 112.5,155.5C 109.662,154.83 107.162,153.496 105,151.5C 103.928,148.447 104.928,146.447 108,145.5C 110.253,146.377 112.419,147.377 114.5,148.5 Z"/></g>
<g><path style="opacity:1" fill="#694c3d" d="M 149.5,147.5 C 148.01,149.28 146.01,149.946 143.5,149.5C 145.302,148.542 147.302,147.875 149.5,147.5 Z"/></g>
<g><path style="opacity:1" fill="#836156" d="M 114.5,148.5 C 124.148,149.245 133.815,149.578 143.5,149.5C 133.743,152.289 124.076,151.955 114.5,148.5 Z"/></g>
<g><path style="opacity:0.004" fill="#fefffe" d="M 22.5,150.5 C 23.8333,151.167 23.8333,151.167 22.5,150.5 Z"/></g>
<g><path style="opacity:0.004" fill="#fefffe" d="M 19.5,156.5 C 20.8333,157.167 20.8333,157.167 19.5,156.5 Z"/></g>
<g><path style="opacity:0.004" fill="#fefffe" d="M 6.5,157.5 C 7.83333,158.167 7.83333,158.167 6.5,157.5 Z"/></g>
<g><path style="opacity:1" fill="#362017" d="M 112.5,155.5 C 121.128,156.587 129.795,157.254 138.5,157.5C 130.99,158.617 123.324,158.617 115.5,157.5C 114.5,156.833 113.5,156.167 112.5,155.5 Z"/></g>
<g><path style="opacity:1" fill="#bd7c69" d="M 183.5,144.5 C 184.497,144.47 185.164,144.97 185.5,146C 184.715,149.029 183.549,151.862 182,154.5C 181.204,157.039 181.371,159.372 182.5,161.5C 183.11,162.391 183.443,163.391 183.5,164.5C 183.107,166.284 182.441,167.95 181.5,169.5C 179.545,168.677 177.545,168.51 175.5,169C 173.333,172.333 170.666,175.166 167.5,177.5C 169.481,174.182 170.981,170.515 172,166.5C 173.569,165.062 175.069,163.562 176.5,162C 176.167,161.667 175.833,161.333 175.5,161C 178.39,155.602 181.057,150.102 183.5,144.5 Z"/></g>
<g><path style="opacity:0.004" fill="#fefffe" d="M 22.5,160.5 C 23.8333,161.167 23.8333,161.167 22.5,160.5 Z"/></g>
<g><path style="opacity:0.004" fill="#fefffe" d="M 212.5,171.5 C 213.833,172.167 213.833,172.167 212.5,171.5 Z"/></g>
<g><path style="opacity:0.004" fill="#fefffe" d="M 182.5,175.5 C 183.833,176.167 183.833,176.167 182.5,175.5 Z"/></g>
<g><path style="opacity:0.004" fill="#fefffe" d="M 210.5,185.5 C 211.833,186.167 211.833,186.167 210.5,185.5 Z"/></g>
<g><path style="opacity:0.004" fill="#fefffe" d="M 193.5,188.5 C 194.833,189.167 194.833,189.167 193.5,188.5 Z"/></g>
<g><path style="opacity:1" fill="#6a4a41" d="M 118.5,191.5 C 125.465,192.341 132.465,192.674 139.5,192.5C 136.686,193.165 133.686,193.498 130.5,193.5C 126.203,193.722 122.203,193.055 118.5,191.5 Z"/></g>
<g><path style="opacity:1" fill="#47545e" d="M 165.5,189.5 C 165.56,188.957 165.893,188.624 166.5,188.5C 167.811,192.984 167.811,197.317 166.5,201.5C 166.817,197.298 166.483,193.298 165.5,189.5 Z"/></g>
<g><path style="opacity:1" fill="#859cab" d="M 165.5,189.5 C 166.483,193.298 166.817,197.298 166.5,201.5C 164.107,206.046 160.441,209.212 155.5,211C 148.998,213.46 142.332,214.96 135.5,215.5C 135.5,210.5 135.5,205.5 135.5,200.5C 139.458,200.749 143.124,200.082 146.5,198.5C 153.152,196.342 159.486,193.342 165.5,189.5 Z"/></g>
<g><path style="opacity:1" fill="#75878b" d="M 70.5,206.5 C 68.691,204.901 67.3576,202.901 66.5,200.5C 63.2423,199.583 59.909,199.249 56.5,199.5C 64.489,195.062 69.1557,197.395 70.5,206.5 Z"/></g>
<g><path style="opacity:1" fill="#4e5966" d="M 110.5,196.5 C 113.746,197.054 116.746,198.054 119.5,199.5C 116.008,199.554 113.008,198.554 110.5,196.5 Z"/></g>
<g><path style="opacity:1" fill="#38444a" d="M 146.5,198.5 C 143.124,200.082 139.458,200.749 135.5,200.5C 138.946,199.313 142.613,198.646 146.5,198.5 Z"/></g>
<g><path style="opacity:1" fill="#869ead" d="M 110.5,196.5 C 113.008,198.554 116.008,199.554 119.5,199.5C 120.919,200.451 122.585,200.784 124.5,200.5C 126.348,204.854 127.015,209.52 126.5,214.5C 124.585,214.784 122.919,214.451 121.5,213.5C 115.865,210.012 110.198,206.512 104.5,203C 102.667,199.833 100.167,197.333 97,195.5C 96.5034,197.81 96.3367,200.143 96.5,202.5C 95.1876,197.985 95.1876,193.318 96.5,188.5C 100.57,192.202 105.237,194.869 110.5,196.5 Z"/></g>
<g><path style="opacity:1" fill="#99b5be" d="M 56.5,200.5 C 56.5,200.167 56.5,199.833 56.5,199.5C 59.909,199.249 63.2423,199.583 66.5,200.5C 67.3576,202.901 68.691,204.901 70.5,206.5C 73.8092,213.487 77.1425,220.487 80.5,227.5C 80.1822,228.647 79.5156,229.481 78.5,230C 76.1341,230.44 73.8008,230.94 71.5,231.5C 71.8807,230.069 72.8807,229.236 74.5,229C 69.8494,220.351 65.5161,211.518 61.5,202.5C 60.1502,201.05 58.4835,200.383 56.5,200.5 Z"/></g>
<g><path style="opacity:1" fill="#b4d0d5" d="M 56.5,200.5 C 58.4835,200.383 60.1502,201.05 61.5,202.5C 65.5161,211.518 69.8494,220.351 74.5,229C 72.8807,229.236 71.8807,230.069 71.5,231.5C 69.597,231.796 67.9303,232.463 66.5,233.5C 63.8478,233.41 61.5145,234.076 59.5,235.5C 56.8481,237.202 54.0147,237.536 51,236.5C 49.7563,232.34 47.7563,228.674 45,225.5C 43.4566,220.367 41.6232,215.367 39.5,210.5C 39.2865,208.856 39.6198,207.356 40.5,206C 44.6097,205.92 47.9431,204.42 50.5,201.5C 52.4352,200.85 54.4352,200.517 56.5,200.5 Z"/></g>
<g><path style="opacity:1" fill="#8c9ea2" d="M 50.5,201.5 C 47.9431,204.42 44.6097,205.92 40.5,206C 39.6198,207.356 39.2865,208.856 39.5,210.5C 38.193,208.777 38.193,206.943 39.5,205C 43.1537,203.726 46.8204,202.56 50.5,201.5 Z"/></g>
<g><path style="opacity:1" fill="#97b3bc" d="M 121.5,213.5 C 118.833,213.5 116.167,213.5 113.5,213.5C 106.478,211.791 100.812,208.125 96.5,202.5C 96.3367,200.143 96.5034,197.81 97,195.5C 100.167,197.333 102.667,199.833 104.5,203C 110.198,206.512 115.865,210.012 121.5,213.5 Z"/></g>
<g><path style="opacity:0.004" fill="#fefffe" d="M 17.5,209.5 C 18.8333,210.167 18.8333,210.167 17.5,209.5 Z"/></g>
<g><path style="opacity:1" fill="#663d3e" d="M 81.5,208.5 C 81.5172,210.565 81.8505,212.565 82.5,214.5C 80.9572,213.264 79.9572,211.598 79.5,209.5C 79.9569,208.702 80.6236,208.369 81.5,208.5 Z"/></g>
<g><path style="opacity:1" fill="#6a7c82" d="M 124.5,200.5 C 125.5,200.5 126.5,200.5 127.5,200.5C 127.5,205.5 127.5,210.5 127.5,215.5C 122.547,215.877 117.881,215.211 113.5,213.5C 116.167,213.5 118.833,213.5 121.5,213.5C 122.919,214.451 124.585,214.784 126.5,214.5C 127.015,209.52 126.348,204.854 124.5,200.5 Z"/></g>
<g><path style="opacity:1" fill="#de7d84" d="M 153.5,246.5 C 153.5,247.167 153.5,247.833 153.5,248.5C 137.589,248.175 121.756,248.509 106,249.5C 103.398,248.704 101.232,247.371 99.5,245.5C 93.3291,235.358 87.6624,225.025 82.5,214.5C 81.8505,212.565 81.5172,210.565 81.5,208.5C 84.2563,206.788 87.2563,206.288 90.5,207C 92.1255,209.628 94.1255,211.961 96.5,214C 106.394,220.56 117.394,223.56 129.5,223C 137.368,231.036 145.368,238.869 153.5,246.5 Z"/></g>
<g><path style="opacity:1" fill="#8f5658" d="M 161.5,216.5 C 158.887,219.16 155.554,220.493 151.5,220.5C 154.678,218.991 158.011,217.658 161.5,216.5 Z"/></g>
<g><path style="opacity:1" fill="#cd7980" d="M 199.5,219.5 C 199.5,218.167 199.5,216.833 199.5,215.5C 194.958,213.735 190.291,212.235 185.5,211C 180.784,211.19 176.117,211.023 171.5,210.5C 171.657,211.873 171.49,213.207 171,214.5C 167.658,215.248 165.158,217.081 163.5,220C 162.451,220.492 161.451,220.326 160.5,219.5C 155.785,221.808 150.785,223.141 145.5,223.5C 144.287,223.747 143.62,224.414 143.5,225.5C 142.833,225.167 142.167,224.833 141.5,224.5C 144.493,222.552 147.826,221.219 151.5,220.5C 155.554,220.493 158.887,219.16 161.5,216.5C 165.779,213.397 169.945,210.063 174,206.5C 184.074,209.081 193.907,212.247 203.5,216C 202.295,217.376 200.962,218.542 199.5,219.5 Z"/></g>
<g><path style="opacity:1" fill="#df7d85" d="M 199.5,219.5 C 190.25,230.921 184.917,243.921 183.5,258.5C 183.5,255.167 183.5,251.833 183.5,248.5C 176.5,248.5 169.5,248.5 162.5,248.5C 162.737,247.209 162.404,246.209 161.5,245.5C 161.5,244.833 161.167,244.5 160.5,244.5C 155.233,237.894 149.566,231.561 143.5,225.5C 143.62,224.414 144.287,223.747 145.5,223.5C 150.785,223.141 155.785,221.808 160.5,219.5C 161.451,220.326 162.451,220.492 163.5,220C 165.158,217.081 167.658,215.248 171,214.5C 171.49,213.207 171.657,211.873 171.5,210.5C 176.117,211.023 180.784,211.19 185.5,211C 190.291,212.235 194.958,213.735 199.5,215.5C 199.5,216.833 199.5,218.167 199.5,219.5 Z"/></g>
<g><path style="opacity:1" fill="#522a2b" d="M 151.5,220.5 C 147.826,221.219 144.493,222.552 141.5,224.5C 140.596,223.791 140.263,222.791 140.5,221.5C 144.154,221.058 147.821,220.724 151.5,220.5 Z"/></g>
<g><path style="opacity:1" fill="#b2cdd3" d="M 212.5,248.5 C 207.125,248.828 201.792,248.495 196.5,247.5C 198.606,244.019 198.939,240.353 197.5,236.5C 201.016,228.979 206.349,222.979 213.5,218.5C 223.236,220.687 232.236,224.52 240.5,230C 237.5,231 234.5,232 231.5,233C 224.422,237.244 218.089,242.411 212.5,248.5 Z"/></g>
<g><path style="opacity:1" fill="#4e5d5d" d="M 66.5,233.5 C 64.4855,234.924 62.1522,235.59 59.5,235.5C 61.5145,234.076 63.8478,233.41 66.5,233.5 Z"/></g>
<g><path style="opacity:1" fill="#ce7981" d="M 43.5,238.5 C 39.7801,236.751 38.1134,233.751 38.5,229.5C 37.5,229.5 36.5,229.5 35.5,229.5C 35.7989,231.604 35.4656,233.604 34.5,235.5C 34.652,228.804 31.652,226.804 25.5,229.5C 24.1667,230.833 22.8333,232.167 21.5,233.5C 24.0756,234.883 23.7423,235.717 20.5,236C 21.3366,237.011 21.67,238.178 21.5,239.5C 19.8561,239.714 18.3561,239.38 17,238.5C 15.454,241.439 13.6207,244.106 11.5,246.5C 11.5,245.833 11.5,245.167 11.5,244.5C 15.6233,233.714 23.29,226.714 34.5,223.5C 39.2665,227.354 42.2665,232.354 43.5,238.5 Z"/></g>
<g><path style="opacity:1" fill="#e17b84" d="M 43.5,238.5 C 43.3398,240.199 43.5065,241.866 44,243.5C 45.4213,245.405 46.588,247.405 47.5,249.5C 35.5619,248.189 23.5619,248.189 11.5,249.5C 10.4557,251.768 10.289,254.101 11,256.5C 24.0872,257.489 37.2539,257.823 50.5,257.5C 50.3713,255.784 50.038,254.117 49.5,252.5C 50.5,253.167 51.5,253.833 52.5,254.5C 52.5,255.5 52.5,256.5 52.5,257.5C 39.3438,258.496 26.0105,258.829 12.5,258.5C 11.5,258.5 10.5,258.5 9.5,258.5C 9.08339,254.183 9.75006,250.183 11.5,246.5C 13.6207,244.106 15.454,241.439 17,238.5C 18.3561,239.38 19.8561,239.714 21.5,239.5C 21.67,238.178 21.3366,237.011 20.5,236C 23.7423,235.717 24.0756,234.883 21.5,233.5C 22.8333,232.167 24.1667,230.833 25.5,229.5C 31.652,226.804 34.652,228.804 34.5,235.5C 35.4656,233.604 35.7989,231.604 35.5,229.5C 36.5,229.5 37.5,229.5 38.5,229.5C 38.1134,233.751 39.7801,236.751 43.5,238.5 Z"/></g>
<g><path style="opacity:1" fill="#b1cdd3" d="M 247.5,237.5 C 247.292,239.92 247.626,242.253 248.5,244.5C 247.872,246.258 246.872,247.758 245.5,249C 239.5,249.667 233.5,249.667 227.5,249C 226.244,248.583 225.577,247.75 225.5,246.5C 231.434,240.203 238.767,237.203 247.5,237.5 Z"/></g>
<g><path style="opacity:1" fill="#b2ced4" d="M 57.5,248.5 C 56.8592,247.518 56.1925,246.518 55.5,245.5C 58.7246,243.785 62.0579,242.451 65.5,241.5C 69.6666,240.9 73.8333,240.234 78,239.5C 79.1667,239.833 80.3333,240.167 81.5,240.5C 82.3742,242.747 82.7076,245.08 82.5,247.5C 74.029,248.478 65.6957,248.811 57.5,248.5 Z"/></g>
<g><path style="opacity:1" fill="#9ab5bf" d="M 247.5,237.5 C 250.254,240.768 252.254,244.434 253.5,248.5C 253.5,252.167 253.5,255.833 253.5,259.5C 241.167,259.5 228.833,259.5 216.5,259.5C 216.491,257.692 216.991,256.025 218,254.5C 220.285,251.568 222.785,248.902 225.5,246.5C 225.577,247.75 226.244,248.583 227.5,249C 233.5,249.667 239.5,249.667 245.5,249C 246.872,247.758 247.872,246.258 248.5,244.5C 247.626,242.253 247.292,239.92 247.5,237.5 Z"/></g>
<g><path style="opacity:1" fill="#de656e" d="M 47.5,249.5 C 48.4013,250.29 49.0679,251.29 49.5,252.5C 50.038,254.117 50.3713,255.784 50.5,257.5C 37.2539,257.823 24.0872,257.489 11,256.5C 10.289,254.101 10.4557,251.768 11.5,249.5C 23.5619,248.189 35.5619,248.189 47.5,249.5 Z"/></g>
<g><path style="opacity:1" fill="#9bb6c0" d="M 98.5,258.5 C 98.1667,259.167 97.8333,259.833 97.5,260.5C 85.8838,259.542 74.2172,259.209 62.5,259.5C 61.3191,255.64 59.6524,251.973 57.5,248.5C 65.6957,248.811 74.029,248.478 82.5,247.5C 82.7076,245.08 82.3742,242.747 81.5,240.5C 80.3333,240.167 79.1667,239.833 78,239.5C 73.8333,240.234 69.6666,240.9 65.5,241.5C 71.6734,239.366 78.0067,237.366 84.5,235.5C 89.429,243.028 94.0956,250.695 98.5,258.5 Z"/></g>
<g><path style="opacity:1" fill="#9db7c0" d="M 197.5,236.5 C 198.939,240.353 198.606,244.019 196.5,247.5C 201.792,248.495 207.125,248.828 212.5,248.5C 210.228,252.046 208.228,255.713 206.5,259.5C 202.167,259.5 197.833,259.5 193.5,259.5C 192.539,257.735 192.205,255.735 192.5,253.5C 193.101,247.411 194.768,241.744 197.5,236.5 Z"/></g>
<g><path style="opacity:1" fill="#985258" d="M 43.5,238.5 C 47.0172,243.534 50.0172,248.867 52.5,254.5C 51.5,253.833 50.5,253.167 49.5,252.5C 49.0679,251.29 48.4013,250.29 47.5,249.5C 46.588,247.405 45.4213,245.405 44,243.5C 43.5065,241.866 43.3398,240.199 43.5,238.5 Z"/></g>
<g><path style="opacity:1" fill="#dd6770" d="M 162.5,248.5 C 169.5,248.5 176.5,248.5 183.5,248.5C 183.5,251.833 183.5,255.167 183.5,258.5C 176.833,258.5 170.167,258.5 163.5,258.5C 162.793,255.214 162.46,251.881 162.5,248.5 Z"/></g>
<g><path style="opacity:1" fill="#351d1e" d="M 160.5,244.5 C 161.167,244.5 161.5,244.833 161.5,245.5C 161.226,250.263 161.559,254.93 162.5,259.5C 162.443,260.609 162.11,261.609 161.5,262.5C 159.167,262.5 156.833,262.5 154.5,262.5C 153.89,261.609 153.557,260.609 153.5,259.5C 153.5,258.833 153.833,258.5 154.5,258.5C 154.414,259.496 154.748,260.329 155.5,261C 157.134,261.494 158.801,261.66 160.5,261.5C 160.5,255.833 160.5,250.167 160.5,244.5 Z"/></g>
<g><path style="opacity:1" fill="#de656e" d="M 99.5,245.5 C 101.232,247.371 103.398,248.704 106,249.5C 121.756,248.509 137.589,248.175 153.5,248.5C 152.949,251.807 152.616,255.14 152.5,258.5C 138.496,258.667 124.496,258.5 110.5,258C 109.099,257.59 107.766,257.09 106.5,256.5C 106.068,255.29 105.401,254.29 104.5,253.5C 102.347,251.206 100.68,248.54 99.5,245.5 Z"/></g>
<g><path style="opacity:0.957" fill="#333f43" d="M 253.5,248.5 C 254.972,252.919 255.638,257.586 255.5,262.5C 255.167,262.5 254.833,262.5 254.5,262.5C 254.443,261.391 254.11,260.391 253.5,259.5C 253.5,255.833 253.5,252.167 253.5,248.5 Z"/></g>
<g><path style="opacity:0.349" fill="#81454b" d="M 11.5,244.5 C 11.5,245.167 11.5,245.833 11.5,246.5C 9.75006,250.183 9.08339,254.183 9.5,258.5C 10.5,258.5 11.5,258.5 12.5,258.5C 12.5,258.833 12.5,259.167 12.5,259.5C 10.4862,259.392 8.81953,260.058 7.5,261.5C 7.57746,257.123 8.07746,252.79 9,248.5C 9.20041,246.68 10.0337,245.347 11.5,244.5 Z"/></g>
<g><path style="opacity:0.37" fill="#b56671" d="M 52.5,257.5 C 53.3382,257.842 53.6716,258.508 53.5,259.5C 39.8333,259.5 26.1667,259.5 12.5,259.5C 12.5,259.167 12.5,258.833 12.5,258.5C 26.0105,258.829 39.3438,258.496 52.5,257.5 Z"/></g>
<g><path style="opacity:0.374" fill="#b2626b" d="M 153.5,246.5 C 154.483,250.298 154.817,254.298 154.5,258.5C 153.833,258.5 153.5,258.833 153.5,259.5C 138.5,259.5 123.5,259.5 108.5,259.5C 107.094,259.027 106.427,258.027 106.5,256.5C 107.766,257.09 109.099,257.59 110.5,258C 124.496,258.5 138.496,258.667 152.5,258.5C 152.616,255.14 152.949,251.807 153.5,248.5C 153.5,247.833 153.5,247.167 153.5,246.5 Z"/></g>
<g><path style="opacity:0.376" fill="#ab5e69" d="M 161.5,245.5 C 162.404,246.209 162.737,247.209 162.5,248.5C 162.46,251.881 162.793,255.214 163.5,258.5C 170.167,258.5 176.833,258.5 183.5,258.5C 183.5,258.833 183.5,259.167 183.5,259.5C 176.355,260.024 169.355,260.024 162.5,259.5C 161.559,254.93 161.226,250.263 161.5,245.5 Z"/></g>
<g><path style="opacity:0.004" fill="#fefffe" d="M 193.5,260.5 C 194.833,261.167 194.833,261.167 193.5,260.5 Z"/></g>
<g><path style="opacity:0.847" fill="#2a1e23" d="M 104.5,253.5 C 105.401,254.29 106.068,255.29 106.5,256.5C 106.427,258.027 107.094,259.027 108.5,259.5C 107.833,260.5 107.167,261.5 106.5,262.5C 104.167,262.5 101.833,262.5 99.5,262.5C 99.1667,261.5 98.5,260.833 97.5,260.5C 97.8333,259.833 98.1667,259.167 98.5,258.5C 99.9221,258.75 100.922,259.583 101.5,261C 102.793,261.49 104.127,261.657 105.5,261.5C 105.425,258.794 105.092,256.127 104.5,253.5 Z"/></g>
<g><path style="opacity:0.851" fill="#303538" d="M 192.5,253.5 C 192.205,255.735 192.539,257.735 193.5,259.5C 193.5,259.833 193.5,260.167 193.5,260.5C 192.5,260.833 191.833,261.5 191.5,262.5C 189.833,262.5 188.167,262.5 186.5,262.5C 187.568,261.566 188.901,261.232 190.5,261.5C 190.565,258.572 191.232,255.905 192.5,253.5 Z"/></g>
</svg>
